<svg xmlns="http://www.w3.org/2000/svg" xmlns:xlink="http://www.w3.org/1999/xlink" version="1.1" x="0px" y="0px" viewBox="0 0 52 65" fill="#899499" enable-background="new 0 0 52 52" xml:space="preserve"><g><path d="M8.4,51h24c1.6,0,2.9-1.3,2.9-2.8v-2.7H38c1.6,0,2.8-1.3,2.8-2.8v-2.7h2.7c1.6,0,2.8-1.3,2.8-2.8V10.9c0,0,0-0.1,0-0.1   c0-0.3-0.2-0.6-0.4-0.8c-11.9-11.9-7.8-7.8-8.7-8.7C37.2,1.1,36.9,1,36.7,1c0,0,0,0,0,0H19.5c-1.6,0-2.8,1.3-2.8,2.8v2.7H14   c-1.6,0-2.8,1.3-2.8,2.8v2.7H8.4c-1.6,0-2.8,1.3-2.8,2.8v33.2C5.6,49.7,6.9,51,8.4,51z M43,9.8h-4.4c-0.5,0-0.9-0.4-0.9-0.9V4.4   L43,9.8L43,9.8z M19.5,3h16.1v5.8c0,1.6,1.3,2.9,2.9,2.9h5.8V37c0,0.5-0.4,0.8-0.8,0.8h-24c-0.5,0-0.8-0.4-0.8-0.8   c0-9.3,0-25.3,0-33.2C18.7,3.4,19.1,3,19.5,3z M13.1,9.4c0-0.5,0.4-0.8,0.8-0.8h2.7V37c0,1.6,1.3,2.8,2.8,2.8h19.3v2.7   c0,0.5-0.4,0.8-0.8,0.8H14c-0.5,0-0.8-0.4-0.8-0.8V9.4z M7.6,15c0-0.5,0.4-0.8,0.8-0.8h2.7v28.5c0,1.6,1.3,2.8,2.8,2.8h19.3v2.7   c0,0.5-0.4,0.8-0.9,0.8h-24c-0.5,0-0.8-0.4-0.8-0.8V15z"/><path d="M21.5,15.5h20c0.6,0,1-0.4,1-1s-0.4-1-1-1h-20c-0.6,0-1,0.4-1,1S21,15.5,21.5,15.5z"/><path d="M21.5,21.6h20c0.6,0,1-0.4,1-1s-0.4-1-1-1h-20c-0.6,0-1,0.4-1,1S21,21.6,21.5,21.6z"/><path d="M21.5,27.7h20c0.6,0,1-0.4,1-1s-0.4-1-1-1h-20c-0.6,0-1,0.4-1,1S21,27.7,21.5,27.7z"/><path d="M21.5,33.8h20c0.6,0,1-0.4,1-1s-0.4-1-1-1h-20c-0.6,0-1,0.4-1,1S21,33.8,21.5,33.8z"/><path d="M23.4,9.7h2.2l0.7,2h0.9L25,5.5h-1L22,11.7h0.8L23.4,9.7z M24.2,7.3c0.1-0.4,0.2-0.8,0.3-1.1h0c0.1,0.4,0.2,0.7,0.3,1.1   l0.6,1.8h-1.9L24.2,7.3z"/><polygon points="29.8,11.7 30.4,11.7 30.4,9.5 32.5,9.5 32.5,8.9 30.4,8.9 30.4,6.8 29.8,6.8 29.8,8.9 27.7,8.9 27.7,9.5 29.8,9.5     "/></g></svg>